<?xml version="1.0" encoding="utf-8"?>
<!-- Generator: Adobe Illustrator 22.0.0, SVG Export Plug-In . SVG Version: 6.00 Build 0)  -->
<svg version="1.1" id="Слой_1" xmlns="http://www.w3.org/2000/svg" xmlns:xlink="http://www.w3.org/1999/xlink" x="0px" y="0px"
	 viewBox="0 0 276 217" style="enable-background:new 0 0 276 217;" width="30" height="30" xml:space="preserve">
<g>
	<path d="M109.3,211.5c-13.1,0-23.8-10.7-23.8-23.8V94.3c0-13.1,10.7-23.8,23.8-23.8h58.5c13.1,0,23.8,10.7,23.8,23.8v93.5
		c0,13.1-10.7,23.8-23.8,23.8H109.3z"/>
	<path d="M167.7,71c12.8,0,23.3,10.4,23.3,23.3v93.5c0,12.8-10.4,23.3-23.3,23.3h-58.5C96.4,211,86,200.6,86,187.7V94.3
		C86,81.4,96.4,71,109.3,71H167.7 M167.7,70h-58.5C95.9,70,85,80.9,85,94.3v93.5c0,13.4,10.9,24.3,24.3,24.3h58.5
		c13.4,0,24.3-10.9,24.3-24.3V94.3C192,80.9,181.1,70,167.7,70L167.7,70z"/>
</g>
<g>
	<circle cx="138.5" cy="37.5" r="29"/>
	<path d="M138.5,9C154.2,9,167,21.8,167,37.5S154.2,66,138.5,66S110,53.2,110,37.5S122.8,9,138.5,9 M138.5,8
		C122.2,8,109,21.2,109,37.5S122.2,67,138.5,67S168,53.8,168,37.5S154.8,8,138.5,8L138.5,8z"/>
</g>
<g>
	<ellipse cx="51.9" cy="67.3" rx="23.7" ry="23.3"/>
</g>
<g>
	<path d="M84,94.5c-3.1-1-6.4-1.6-9.8-1.6H34.9c-15.4,0-27.9,11-27.9,24.5v56.2C7,187,19.6,198,34.9,198h39.2c3.5,0,6.8-0.6,9.8-1.6
		V94.5z"/>
</g>
<g>
	<ellipse cx="225.1" cy="67.3" rx="23.7" ry="23.3"/>
</g>
<g>
	<path d="M193,94.5c3.1-1,6.4-1.6,9.8-1.6h39.2c15.4,0,27.9,11,27.9,24.5v56.2c0,13.5-12.6,24.5-27.9,24.5h-39.2
		c-3.5,0-6.8-0.6-9.8-1.6V94.5z"/>
</g>
</svg>
