<?xml version="1.0" encoding="utf-8"?>
<!-- Generator: Adobe Illustrator 21.0.2, SVG Export Plug-In . SVG Version: 6.00 Build 0)  -->
<svg version="1.1" id="Слой_1" xmlns="http://www.w3.org/2000/svg" xmlns:xlink="http://www.w3.org/1999/xlink" x="0px" y="0px"
	 viewBox="0 0 275 298" style="enable-background:new 0 0 275 298;" width="30" height="30" xml:space="preserve">
<style type="text/css">
	.st0{font-family:'Impact';}
	.st1{font-size:48px;}
</style>
<g>
	<path d="M39,86.8l99.5-75.3L238,86.8H39z M137,22c-14.9,0-27,12.1-27,27s12.1,27,27,27s27-12.1,27-27S151.9,22,137,22z"/>
	<path d="M138.5,14l13.2,10c-4.3-2.6-9.3-4-14.7-4c-2.7,0-5.3,0.4-7.8,1.1L138.5,14 M157,28l75.1,56.8H44.9l67.4-51
		c-2.7,4.4-4.3,9.6-4.3,15.1c0,16,13,29,29,29s29-13,29-29C166,40.8,162.5,33.3,157,28 M138.5,9L33,88.8h211L138.5,9L138.5,9z
		 M137,74c-13.8,0-25-11.2-25-25c0-13.8,11.2-25,25-25s25,11.2,25,25C162,62.8,150.8,74,137,74L137,74z"/>
</g>
<g>
	<path d="M75.5,178.5c-1.7,0-3-1.3-3-3v-78c0-1.7,1.3-3,3-3h11c1.7,0,3,1.3,3,3v78c0,1.7-1.3,3-3,3H75.5z"/>
	<path d="M86.5,96c0.8,0,1.5,0.7,1.5,1.5v78c0,0.8-0.7,1.5-1.5,1.5h-11c-0.8,0-1.5-0.7-1.5-1.5v-78c0-0.8,0.7-1.5,1.5-1.5H86.5
		 M86.5,93h-11C73,93,71,95,71,97.5v78c0,2.5,2,4.5,4.5,4.5h11c2.5,0,4.5-2,4.5-4.5v-78C91,95,89,93,86.5,93L86.5,93z"/>
</g>
<g>
	<path d="M133.5,178.5c-1.7,0-3-1.3-3-3v-78c0-1.7,1.3-3,3-3h11c1.7,0,3,1.3,3,3v78c0,1.7-1.3,3-3,3H133.5z"/>
	<path d="M144.5,96c0.8,0,1.5,0.7,1.5,1.5v78c0,0.8-0.7,1.5-1.5,1.5h-11c-0.8,0-1.5-0.7-1.5-1.5v-78c0-0.8,0.7-1.5,1.5-1.5H144.5
		 M144.5,93h-11c-2.5,0-4.5,2-4.5,4.5v78c0,2.5,2,4.5,4.5,4.5h11c2.5,0,4.5-2,4.5-4.5v-78C149,95,147,93,144.5,93L144.5,93z"/>
</g>
<g>
	<path d="M189.5,178.5c-1.7,0-3-1.3-3-3v-78c0-1.7,1.3-3,3-3h11c1.7,0,3,1.3,3,3v78c0,1.7-1.3,3-3,3H189.5z"/>
	<path d="M200.5,96c0.8,0,1.5,0.7,1.5,1.5v78c0,0.8-0.7,1.5-1.5,1.5h-11c-0.8,0-1.5-0.7-1.5-1.5v-78c0-0.8,0.7-1.5,1.5-1.5H200.5
		 M200.5,93h-11c-2.5,0-4.5,2-4.5,4.5v78c0,2.5,2,4.5,4.5,4.5h11c2.5,0,4.5-2,4.5-4.5v-78C205,95,203,93,200.5,93L200.5,93z"/>
</g>
<g>
	<path d="M58.9,214c-4.9,0-8.9-4-8.9-8.9v-9.3c0-4.9,4-8.9,8.9-8.9h159.3c4.9,0,8.9,4,8.9,8.9v9.3c0,4.9-4,8.9-8.9,8.9H58.9z"/>
	<path d="M218.1,189c3.8,0,6.9,3.1,6.9,6.9v9.3c0,3.8-3.1,6.9-6.9,6.9H58.9c-3.8,0-6.9-3.1-6.9-6.9v-9.3c0-3.8,3.1-6.9,6.9-6.9
		H218.1 M218.1,185H58.9c-6,0-10.9,4.9-10.9,10.9v9.3c0,6,4.9,10.9,10.9,10.9h159.3c6,0,10.9-4.9,10.9-10.9v-9.3
		C229,189.9,224.1,185,218.1,185L218.1,185z"/>
</g>
<g>
	<path d="M38.2,250c-5.1,0-9.2-4.1-9.2-9.2v-8.6c0-5.1,4.1-9.2,9.2-9.2h199.6c5.1,0,9.2,4.1,9.2,9.2v8.6c0,5.1-4.1,9.2-9.2,9.2H38.2
		z"/>
	<path d="M237.8,225c4,0,7.2,3.2,7.2,7.2v8.6c0,4-3.2,7.2-7.2,7.2H38.2c-4,0-7.2-3.2-7.2-7.2v-8.6c0-4,3.2-7.2,7.2-7.2H237.8
		 M237.8,221H38.2C32,221,27,226,27,232.2v8.6c0,6.2,5,11.2,11.2,11.2h199.6c6.2,0,11.2-5,11.2-11.2v-8.6C249,226,244,221,237.8,221
		L237.8,221z"/>
</g>
<g>
	<path d="M19.7,286c-5.4,0-9.7-4.4-9.7-9.7v-7.6c0-5.4,4.4-9.7,9.7-9.7h235.6c5.4,0,9.7,4.4,9.7,9.7v7.6c0,5.4-4.4,9.7-9.7,9.7H19.7
		z"/>
	<path d="M255.3,261c4.3,0,7.7,3.5,7.7,7.7v7.6c0,4.3-3.5,7.7-7.7,7.7H19.7c-4.3,0-7.7-3.5-7.7-7.7v-7.6c0-4.3,3.5-7.7,7.7-7.7
		H255.3 M255.3,257H19.7C13.3,257,8,262.3,8,268.7v7.6c0,6.4,5.3,11.7,11.7,11.7h235.6c6.4,0,11.7-5.3,11.7-11.7v-7.6
		C267,262.3,261.7,257,255.3,257L255.3,257z"/>
</g>
<text transform="matrix(1 0 0 1 123.333 68)" class="st0 st1">$</text>
</svg>
