<?xml version="1.0" encoding="utf-8"?>
<!-- Generator: Adobe Illustrator 22.0.0, SVG Export Plug-In . SVG Version: 6.00 Build 0)  -->
<svg version="1.1" id="Слой_1" xmlns="http://www.w3.org/2000/svg" xmlns:xlink="http://www.w3.org/1999/xlink" x="0px" y="0px"
	 viewBox="0 0 272.7 274.7" style="enable-background:new 0 0 272.7 274.7;" width="30" height="30" xml:space="preserve">
<style type="text/css">
	.st0{font-family:'Impact';}
	.st1{font-size:48px;}
</style>
<g>
	<path d="M12.1,93.3l124.2-80.5l124.2,80.5H12.1z M134.5,24.4c-18.2,0-33,12.8-33,28.6c0,15.8,14.8,28.6,33,28.6s33-12.8,33-28.6
		C167.5,37.2,152.7,24.4,134.5,24.4z"/>
	<path d="M136.3,15.3l117.5,76.1H18.9l87.7-56.8c-4.5,5.1-7.1,11.5-7.1,18.4c0,16.9,15.7,30.6,35,30.6c19.3,0,35-13.7,35-30.6
		s-15.7-30.6-35-30.6c-4.3,0-8.3,0.7-12.1,1.9L136.3,15.3 M136.3,10.5L5.3,95.3h262L136.3,10.5L136.3,10.5z M134.5,79.6
		c-17.1,0-31-11.9-31-26.6c0-14.7,13.9-26.6,31-26.6c17.1,0,31,11.9,31,26.6C165.5,67.7,151.6,79.6,134.5,79.6L134.5,79.6z"/>
</g>
<g>
	<path d="M56.8,185.8c-1.7,0-3-1.3-3-3v-78c0-1.7,1.3-3,3-3h14c1.7,0,3,1.3,3,3v78c0,1.7-1.3,3-3,3H56.8z"/>
	<path d="M70.8,103.3c0.8,0,1.5,0.7,1.5,1.5v78c0,0.8-0.7,1.5-1.5,1.5h-14c-0.8,0-1.5-0.7-1.5-1.5v-78c0-0.8,0.7-1.5,1.5-1.5H70.8
		 M70.8,100.3h-14c-2.5,0-4.5,2-4.5,4.5v78c0,2.5,2,4.5,4.5,4.5h14c2.5,0,4.5-2,4.5-4.5v-78C75.3,102.4,73.3,100.3,70.8,100.3
		L70.8,100.3z"/>
</g>
<g>
	<path d="M130.8,185.8c-1.7,0-3-1.3-3-3v-78c0-1.7,1.3-3,3-3h15c1.7,0,3,1.3,3,3v78c0,1.7-1.3,3-3,3H130.8z"/>
	<path d="M145.8,103.3c0.8,0,1.5,0.7,1.5,1.5v78c0,0.8-0.7,1.5-1.5,1.5h-15c-0.8,0-1.5-0.7-1.5-1.5v-78c0-0.8,0.7-1.5,1.5-1.5H145.8
		 M145.8,100.3h-15c-2.5,0-4.5,2-4.5,4.5v78c0,2.5,2,4.5,4.5,4.5h15c2.5,0,4.5-2,4.5-4.5v-78C150.3,102.4,148.3,100.3,145.8,100.3
		L145.8,100.3z"/>
</g>
<g>
	<path d="M205.8,185.8c-1.7,0-3-1.3-3-3v-78c0-1.7,1.3-3,3-3h15c1.7,0,3,1.3,3,3v78c0,1.7-1.3,3-3,3H205.8z"/>
	<path d="M220.8,103.3c0.8,0,1.5,0.7,1.5,1.5v78c0,0.8-0.7,1.5-1.5,1.5h-15c-0.8,0-1.5-0.7-1.5-1.5v-78c0-0.8,0.7-1.5,1.5-1.5H220.8
		 M220.8,100.3h-15c-2.5,0-4.5,2-4.5,4.5v78c0,2.5,2,4.5,4.5,4.5h15c2.5,0,4.5-2,4.5-4.5v-78C225.3,102.4,223.3,100.3,220.8,100.3
		L220.8,100.3z"/>
</g>
<g>
	<path d="M42,212.3c-2,0-3.7-1.6-3.7-3.7V198c0-2,1.6-3.7,3.7-3.7h189.7c2,0,3.7,1.6,3.7,3.7v10.7c0,2-1.6,3.7-3.7,3.7H42z"/>
	<path d="M231.7,196.3c0.9,0,1.7,0.8,1.7,1.7v10.7c0,0.9-0.8,1.7-1.7,1.7H42c-0.9,0-1.7-0.8-1.7-1.7V198c0-0.9,0.8-1.7,1.7-1.7
		H231.7 M231.7,192.3H42c-3.1,0-5.7,2.5-5.7,5.7v10.7c0,3.1,2.6,5.7,5.7,5.7h189.7c3.1,0,5.7-2.5,5.7-5.7V198
		C237.3,194.9,234.8,192.3,231.7,192.3L231.7,192.3z"/>
</g>
<g>
	<path d="M26,237.8c-2,0-3.7-1.6-3.7-3.7V223c0-2,1.6-3.7,3.7-3.7h223.7c2,0,3.7,1.6,3.7,3.7v11.1c0,2-1.6,3.7-3.7,3.7H26z"/>
	<path d="M249.7,221.3c0.9,0,1.7,0.8,1.7,1.7v11.1c0,0.9-0.8,1.7-1.7,1.7H26c-0.9,0-1.7-0.8-1.7-1.7V223c0-0.9,0.8-1.7,1.7-1.7
		H249.7 M249.7,217.3H26c-3.1,0-5.7,2.5-5.7,5.7v11.1c0,3.1,2.6,5.7,5.7,5.7h223.7c3.1,0,5.7-2.5,5.7-5.7V223
		C255.3,219.9,252.8,217.3,249.7,217.3L249.7,217.3z"/>
</g>
<g>
	<path d="M15.5,263.8c-2.8,0-5.2-2.3-5.2-5.2v-9.1c0-2.8,2.3-5.2,5.2-5.2h244.7c2.8,0,5.2,2.3,5.2,5.2v9.1c0,2.8-2.3,5.2-5.2,5.2
		H15.5z"/>
	<path d="M260.2,246.3c1.7,0,3.2,1.4,3.2,3.2v9.1c0,1.7-1.4,3.2-3.2,3.2H15.5c-1.7,0-3.2-1.4-3.2-3.2v-9.1c0-1.7,1.4-3.2,3.2-3.2
		H260.2 M260.2,242.3H15.5c-3.9,0-7.2,3.2-7.2,7.2v9.1c0,3.9,3.2,7.2,7.2,7.2h244.7c3.9,0,7.2-3.2,7.2-7.2v-9.1
		C267.3,245.6,264.1,242.3,260.2,242.3L260.2,242.3z"/>
</g>
<text transform="matrix(1.1649 0 0 1 118.3333 72.3333)" class="st0 st1">$</text>
</svg>
