<?xml version="1.0" encoding="utf-8"?>
<!-- Generator: Adobe Illustrator 21.0.2, SVG Export Plug-In . SVG Version: 6.00 Build 0)  -->
<svg version="1.1" id="Слой_1" xmlns="http://www.w3.org/2000/svg" xmlns:xlink="http://www.w3.org/1999/xlink" x="0px" y="0px"
	 viewBox="0 0 302 209" style="enable-background:new 0 0 302 209;" width="30" height="30" xml:space="preserve">
<style type="text/css">
	.st0{fill:#0071BC;stroke:#000000;stroke-miterlimit:10;}
	.st1{font-family:'NunitoSans-Black';}
	.st2{font-size:29.7987px;}
</style>
<g>
	<g>
		<path d="M8.5,22c0-9.1,7.4-16.5,16.5-16.5h40.5L8.5,104.1V22z"/>
		<path d="M64.6,6L9,102.2V22c0-8.8,7.2-16,16-16H64.6 M66.3,5H25C15.6,5,8,12.6,8,22v84L66.3,5L66.3,5z"/>
	</g>
	<g>
		<path d="M45.3,153.5L129.4,7.8c0.4-0.7,0.7-1.5,0.9-2.3H221c9.1,0,16.5,7.4,16.5,16.5V137c0,9.1-7.4,16.5-16.5,16.5H45.3z"/>
		<path d="M221,6c8.8,0,16,7.2,16,16V137c0,8.8-7.2,16-16,16H46.2L129.8,8.1c0.4-0.7,0.7-1.3,0.9-2.1H221 M221,5h-91.1
			c-0.2,0.9-0.5,1.8-0.9,2.6L44.4,154H221c9.3,0,17-7.6,17-17V22C238,12.6,230.4,5,221,5L221,5z"/>
	</g>
	<g>
		<path d="M19.5,152.6c-3.6-1.3-6.6-3.7-8.6-7l80.9-140h12.7L19.5,152.6z"/>
		<path d="M103.6,6L19.3,151.9c-3.2-1.2-6-3.5-7.8-6.4L92,6H103.6 M105.3,5H91.5L10.3,145.5c2.1,3.6,5.4,6.3,9.4,7.6L105.3,5
			L105.3,5z"/>
	</g>
</g>
<g>
	<path d="M83,200.5c-9.1,0-16.5-7.4-16.5-16.5V69c0-9.1,7.4-16.5,16.5-16.5H279c9.1,0,16.5,7.4,16.5,16.5V184
		c0,9.1-7.4,16.5-16.5,16.5H83z M123,179c-0.6,0-0.6,0-0.6,5.6c0,5.4,0,5.4,0.6,5.4h88.5c0.6,0,0.6,0,0.6-5.6c0-5.4,0-5.4-0.6-5.4
		H123z M221,156.5c-2.5,0-4.5,2-4.5,4.5v7c0,2.5,2,4.5,4.5,4.5h27c2.5,0,4.5-2,4.5-4.5v-7c0-2.5-2-4.5-4.5-4.5H221z M176,155.5
		c-2.5,0-4.5,2-4.5,4.5v8c0,2.5,2,4.5,4.5,4.5h27c2.5,0,4.5-2,4.5-4.5v-8c0-2.5-2-4.5-4.5-4.5H176z M131,155.5c-2.5,0-4.5,2-4.5,4.5
		v8c0,2.5,2,4.5,4.5,4.5h27c2.5,0,4.5-2,4.5-4.5v-8c0-2.5-2-4.5-4.5-4.5H131z M88,155.5c-2.5,0-4.5,2-4.5,4.5v8c0,2.5,2,4.5,4.5,4.5
		h27c2.5,0,4.5-2,4.5-4.5v-8c0-2.5-2-4.5-4.5-4.5H88z M251.4,63.5c-7.7,0-13.9,6.2-13.9,13.9v21.2c0,7.7,6.2,13.9,13.9,13.9h21.2
		c7.7,0,13.9-6.2,13.9-13.9V77.4c0-7.7-6.2-13.9-13.9-13.9H251.4z"/>
	<path d="M279,53c8.8,0,16,7.2,16,16V184c0,8.8-7.2,16-16,16H83c-8.8,0-16-7.2-16-16V69c0-8.8,7.2-16,16-16H279 M251.4,113h21.2
		c7.9,0,14.4-6.5,14.4-14.4V77.4c0-7.9-6.5-14.4-14.4-14.4h-21.2c-7.9,0-14.4,6.5-14.4,14.4v21.2C237,106.5,243.5,113,251.4,113
		 M176,173h27c2.8,0,5-2.2,5-5v-8c0-2.8-2.2-5-5-5h-27c-2.8,0-5,2.2-5,5v8C171,170.8,173.2,173,176,173 M131,173h27c2.8,0,5-2.2,5-5
		v-8c0-2.8-2.2-5-5-5h-27c-2.8,0-5,2.2-5,5v8C126,170.8,128.2,173,131,173 M88,173h27c2.8,0,5-2.2,5-5v-8c0-2.8-2.2-5-5-5H88
		c-2.8,0-5,2.2-5,5v8C83,170.8,85.2,173,88,173 M221,173h27c2.8,0,5-2.2,5-5v-7c0-2.8-2.2-5-5-5h-27c-2.8,0-5,2.2-5,5v7
		C216,170.8,218.2,173,221,173 M123,190.5h88.5c1,0,1-1,1-1.4c0-0.3,0-0.7,0-1.2c0-1,0-2.2,0-3.5c0-1.2,0-2.5,0-3.4
		c0-0.5,0-0.9,0-1.1c0-0.4,0-1.4-1-1.4H123c-1,0-1,1-1,1.4c0,0.3,0,0.7,0,1.2c0,1,0,2.2,0,3.5c0,1.2,0,2.5,0,3.4c0,0.5,0,0.9,0,1.1
		C122,189.5,122,190.5,123,190.5 M279,52H83c-9.3,0-17,7.6-17,17V184c0,9.3,7.6,17,17,17H279c9.3,0,17-7.6,17-17V69
		C296,59.6,288.4,52,279,52L279,52z M251.4,112c-7.4,0-13.4-6-13.4-13.4V77.4c0-7.4,6-13.4,13.4-13.4h21.2c7.4,0,13.4,6,13.4,13.4
		v21.2c0,7.4-6,13.4-13.4,13.4H251.4L251.4,112z M176,172c-2.2,0-4-1.8-4-4v-8c0-2.2,1.8-4,4-4h27c2.2,0,4,1.8,4,4v8
		c0,2.2-1.8,4-4,4H176L176,172z M131,172c-2.2,0-4-1.8-4-4v-8c0-2.2,1.8-4,4-4h27c2.2,0,4,1.8,4,4v8c0,2.2-1.8,4-4,4H131L131,172z
		 M88,172c-2.2,0-4-1.8-4-4v-8c0-2.2,1.8-4,4-4h27c2.2,0,4,1.8,4,4v8c0,2.2-1.8,4-4,4H88L88,172z M221,172c-2.2,0-4-1.8-4-4v-7
		c0-2.2,1.8-4,4-4h27c2.2,0,4,1.8,4,4v7c0,2.2-1.8,4-4,4H221L221,172z M123,189.5c-0.1,0-0.1-10,0-10h88.5c0.1,0,0.1,10,0,10H123
		L123,189.5z"/>
</g>
<text transform="matrix(1.038 0 0 1 90.5 97.6748)" class="st0 st1 st2">DOC</text>
</svg>
