<?xml version="1.0" encoding="utf-8"?>
<!-- Generator: Adobe Illustrator 22.0.0, SVG Export Plug-In . SVG Version: 6.00 Build 0)  -->
<svg version="1.1" id="Слой_1" xmlns="http://www.w3.org/2000/svg" xmlns:xlink="http://www.w3.org/1999/xlink" x="0px" y="0px"
	 viewBox="0 0 144.1 143.4" style="enable-background:new 0 0 144.1 143.4;" width="30" height="30" xml:space="preserve">
<style type="text/css">
	.st0{fill:#000000;}
	.st1{fill:#F41D2B;}
</style>
<g>
	<circle class="st0" cx="72.3" cy="71.6" r="68"/>
	<path class="st1" d="M72.3,5.6c36.4,0,66,29.6,66,66s-29.6,66-66,66s-66-29.6-66-66S35.9,5.6,72.3,5.6 M72.3,1.6
		c-38.7,0-70,31.3-70,70s31.3,70,70,70s70-31.3,70-70S110.9,1.6,72.3,1.6L72.3,1.6z"/>
</g>
<g>
	<g>
		<path class="st1" d="M108.5,93.7c-24.2,0-48.4,0-72.7,0c-2.9,0-2.9,4.5,0,4.5c24.2,0,48.4,0,72.7,0
			C111.4,98.2,111.4,93.7,108.5,93.7L108.5,93.7z"/>
	</g>
</g>
<g>
	<g>
		<path class="st1" d="M108.5,69.7c-24.2,0-48.4,0-72.7,0c-2.9,0-2.9,4.5,0,4.5c24.2,0,48.4,0,72.7,0
			C111.4,74.2,111.4,69.7,108.5,69.7L108.5,69.7z"/>
	</g>
</g>
<g>
	<g>
		<path class="st1" d="M108.5,45.7c-24.2,0-48.4,0-72.7,0c-2.9,0-2.9,4.5,0,4.5c24.2,0,48.4,0,72.7,0
			C111.4,50.2,111.4,45.7,108.5,45.7L108.5,45.7z"/>
	</g>
</g>
<g>
	<g>
		<path class="st1" d="M70,134.1c2.9,0,2.9-4.5,0-4.5S67.1,134.1,70,134.1L70,134.1z"/>
	</g>
</g>
<g>
	<g>
		<path class="st1" d="M49,125.5c2.9,0,2.9-4.5,0-4.5S46.1,125.5,49,125.5L49,125.5z"/>
	</g>
</g>
<g>
	<g>
		<path class="st1" d="M32.8,116.1c2.9,0,2.9-4.5,0-4.5S29.9,116.1,32.8,116.1L32.8,116.1z"/>
	</g>
</g>
<g>
	<g>
		<path class="st1" d="M18.5,101.3c2.9,0,2.9-4.5,0-4.5S15.6,101.3,18.5,101.3L18.5,101.3z"/>
	</g>
</g>
<g>
	<g>
		<path class="st1" d="M14.6,81c2.9,0,2.9-4.5,0-4.5S11.7,81,14.6,81L14.6,81z"/>
	</g>
</g>
<g>
	<g>
		<path class="st1" d="M13.8,56.8c2.9,0,2.9-4.5,0-4.5S10.9,56.8,13.8,56.8L13.8,56.8z"/>
	</g>
</g>
<g>
	<g>
		<path class="st1" d="M22.4,35.7c2.9,0,2.9-4.5,0-4.5S19.5,35.7,22.4,35.7L22.4,35.7z"/>
	</g>
</g>
<g>
	<g>
		<path class="st1" d="M38,21.6c2.9,0,2.9-4.5,0-4.5S35.1,21.6,38,21.6L38,21.6z"/>
	</g>
</g>
<g>
	<g>
		<path class="st1" d="M56.8,14.6c2.9,0,2.9-4.5,0-4.5C53.9,10.1,53.8,14.6,56.8,14.6L56.8,14.6z"/>
	</g>
</g>
<g>
	<g>
		<path class="st1" d="M77.9,14.6c2.9,0,2.9-4.5,0-4.5S75,14.6,77.9,14.6L77.9,14.6z"/>
	</g>
</g>
</svg>
