<?xml version="1.0" encoding="utf-8"?>
<!-- Generator: Adobe Illustrator 22.0.0, SVG Export Plug-In . SVG Version: 6.00 Build 0)  -->
<svg version="1.1" id="Слой_1" xmlns="http://www.w3.org/2000/svg" xmlns:xlink="http://www.w3.org/1999/xlink" x="0px" y="0px"
	 viewBox="0 0 298.9 281.5" style="enable-background:new 0 0 298.9 281.5;" width="30" height="30" xml:space="preserve">
<g>
	<path d="M15.6,275.7c-3.7,0-6.7-3-6.7-6.7V80.4c0-3.7,3-6.7,6.7-6.7h270.6c3.7,0,6.7,3,6.7,6.7V269c0,3.7-3,6.7-6.7,6.7H15.6z
		 M48.6,90.5c-10.9,0-19.7,8.8-19.7,19.7v129c0,10.9,8.8,19.7,19.7,19.7h203.6c10.9,0,19.7-8.8,19.7-19.7v-129
		c0-10.9-8.8-19.7-19.7-19.7H48.6z"/>
	<path d="M286.2,74.2c3.4,0,6.2,2.8,6.2,6.2V269c0,3.4-2.8,6.2-6.2,6.2H15.6c-3.4,0-6.2-2.8-6.2-6.2V80.4c0-3.4,2.8-6.2,6.2-6.2
		H286.2 M48.6,259.4h203.6c11.1,0,20.2-9.1,20.2-20.2v-129c0-11.1-9.1-20.2-20.2-20.2H48.6c-11.1,0-20.2,9.1-20.2,20.2v129
		C28.4,250.3,37.5,259.4,48.6,259.4 M286.2,73.2H15.6c-4,0-7.2,3.2-7.2,7.2V269c0,4,3.2,7.2,7.2,7.2h270.6c4,0,7.2-3.2,7.2-7.2V80.4
		C293.4,76.4,290.2,73.2,286.2,73.2L286.2,73.2z M48.6,258.4c-10.6,0-19.2-8.6-19.2-19.2v-129c0-10.6,8.6-19.2,19.2-19.2h203.6
		c10.6,0,19.2,8.6,19.2,19.2v129c0,10.6-8.6,19.2-19.2,19.2H48.6L48.6,258.4z"/>
</g>
<g>
	<path d="M151.4,72.7h-21.5c0.3-11.6,9.8-21,21.5-21c11.8,0,21.4,9.5,21.5,21.3L151.4,72.7z"/>
	<path d="M151.4,52.2c11.3,0,20.6,9,21,20.3l-21-0.3h-21C131,61.1,140.2,52.2,151.4,52.2 M151.4,51.2c-12.1,0-22,9.9-22,22h22
		l22,0.3c0-0.1,0-0.2,0-0.3C173.4,61.1,163.5,51.2,151.4,51.2L151.4,51.2z"/>
</g>
<g>
	<path d="M155.9,66.5c-1.1,0-2.1-0.4-2.8-1.2l-0.5-0.5c-0.8-0.8-1.2-1.8-1.2-2.8c0-1.1,0.4-2.1,1.2-2.8l53.3-53.3
		c0.8-0.8,1.8-1.2,2.8-1.2c1.1,0,2.1,0.4,2.8,1.2l0.5,0.5c1.6,1.6,1.6,4.1,0,5.7l-53.3,53.3C158,66.1,157,66.5,155.9,66.5z"/>
	<path d="M208.7,5.1c0.9,0,1.8,0.4,2.5,1l0.5,0.5c1.4,1.4,1.4,3.6,0,4.9L158.4,65c-0.7,0.7-1.5,1-2.5,1c-0.9,0-1.8-0.4-2.5-1
		l-0.5-0.5c-0.7-0.7-1-1.5-1-2.5c0-0.9,0.4-1.8,1-2.5l53.3-53.3C206.9,5.5,207.7,5.1,208.7,5.1 M208.7,4.1c-1.2,0-2.3,0.4-3.2,1.3
		l-53.3,53.3c-1.8,1.8-1.8,4.6,0,6.4l0.5,0.5c0.9,0.9,2,1.3,3.2,1.3s2.3-0.4,3.2-1.3l53.3-53.3c1.8-1.8,1.8-4.6,0-6.4l-0.5-0.5
		C211,4.6,209.8,4.1,208.7,4.1L208.7,4.1z"/>
</g>
<g>
	<path d="M146.7,66.5c-1.1,0-2.1-0.4-2.8-1.2L90.5,12c-1.6-1.6-1.6-4.1,0-5.7l0.5-0.5c0.8-0.8,1.8-1.2,2.8-1.2
		c1.1,0,2.1,0.4,2.8,1.2l53.3,53.3c0.8,0.8,1.2,1.8,1.2,2.8c0,1.1-0.4,2.1-1.2,2.8l-0.5,0.5C148.8,66.1,147.8,66.5,146.7,66.5z"/>
	<path d="M93.9,5.1c0.9,0,1.8,0.4,2.5,1l53.3,53.3c1.4,1.4,1.4,3.6,0,4.9l-0.5,0.5c-0.7,0.7-1.5,1-2.5,1s-1.8-0.4-2.5-1L90.9,11.7
		c-1.4-1.4-1.4-3.6,0-4.9l0.5-0.5C92.1,5.5,92.9,5.1,93.9,5.1 M93.9,4.1c-1.2,0-2.3,0.4-3.2,1.3L90.2,6c-1.8,1.8-1.8,4.6,0,6.4
		l53.3,53.3c0.9,0.9,2,1.3,3.2,1.3s2.3-0.4,3.2-1.3l0.5-0.5c1.8-1.8,1.8-4.6,0-6.4L97.1,5.5C96.2,4.6,95,4.1,93.9,4.1L93.9,4.1z"/>
</g>
<g>
	<path d="M210.4,251.7l-38.5-0.1c0.2-10.7,6.2-20.9,16-27.3c5.3,5.3,13.5,8.4,22,8.4c8.8,0,17.1-3.3,22.4-8.8
		c10.3,6.4,16.5,16.8,16.6,27.9H210.4z"/>
	<path d="M232.3,224.5c9.8,6.2,15.7,16.1,16.1,26.7h-38l-38-0.1c0.4-10.3,6.1-19.9,15.4-26.1c5.4,5.2,13.5,8.3,22,8.3
		C218.6,233.2,227,229.9,232.3,224.5 M232.2,223.2c-5,5.4-13.1,9-22.3,9c-8.9,0-16.9-3.4-21.9-8.5c-9.9,6.3-16.5,16.7-16.5,28.4
		l39,0.1h39C249.4,240.2,242.5,229.5,232.2,223.2L232.2,223.2z"/>
</g>
<g>
	<ellipse cx="210.4" cy="198.2" rx="24.5" ry="22.5"/>
	<path d="M210.4,176.1c13.2,0,24,9.9,24,22c0,12.1-10.8,22-24,22c-13.2,0-24-9.9-24-22C186.4,186,197.2,176.1,210.4,176.1
		 M210.4,175.1c-13.8,0-25,10.3-25,23c0,12.7,11.2,23,25,23s25-10.3,25-23C235.4,185.5,224.2,175.1,210.4,175.1L210.4,175.1z"/>
</g>
<g>
	<path d="M128.4,179.7H73.4c-6.3,0-11.5-5.2-11.5-11.5v-32c0-6.3,5.2-11.5,11.5-11.5h83c6.3,0,11.5,5.2,11.5,11.5v32
		c0,6.3-5.2,11.5-11.5,11.5h-2.6v13L128.4,179.7z M92.9,153.7c-2.8,0-5,2.2-5,5s2.2,5,5,5h48c2.8,0,5-2.2,5-5s-2.2-5-5-5H92.9z
		 M76.9,134.7c-2.8,0-5,2.2-5,5s2.2,5,5,5h77c2.8,0,5-2.2,5-5s-2.2-5-5-5H76.9z"/>
	<path d="M156.4,125.2c6.1,0,11,4.9,11,11v32c0,6.1-4.9,11-11,11h-2.1h-1v1v11.7l-24.6-12.6l-0.2-0.1h-0.2H73.4c-6.1,0-11-4.9-11-11
		v-32c0-6.1,4.9-11,11-11H156.4 M76.9,145.2h77c3,0,5.5-2.5,5.5-5.5c0-3-2.5-5.5-5.5-5.5h-77c-3,0-5.5,2.5-5.5,5.5
		C71.4,142.7,73.9,145.2,76.9,145.2 M92.9,164.2h48c3,0,5.5-2.5,5.5-5.5c0-3-2.5-5.5-5.5-5.5h-48c-3,0-5.5,2.5-5.5,5.5
		C87.4,161.7,89.9,164.2,92.9,164.2 M156.4,124.2h-83c-6.6,0-12,5.4-12,12v32c0,6.6,5.4,12,12,12h54.8l26.1,13.4v-13.4h2.1
		c6.6,0,12-5.4,12-12v-32C168.4,129.6,163,124.2,156.4,124.2L156.4,124.2z M76.9,144.2c-2.5,0-4.5-2-4.5-4.5c0-2.5,2-4.5,4.5-4.5h77
		c2.5,0,4.5,2,4.5,4.5c0,2.5-2,4.5-4.5,4.5H76.9L76.9,144.2z M92.9,163.2c-2.5,0-4.5-2-4.5-4.5c0-2.5,2-4.5,4.5-4.5h48
		c2.5,0,4.5,2,4.5,4.5c0,2.5-2,4.5-4.5,4.5H92.9L92.9,163.2z"/>
</g>
</svg>
