<?xml version="1.0" encoding="utf-8"?>
<!-- Generator: Adobe Illustrator 22.0.0, SVG Export Plug-In . SVG Version: 6.00 Build 0)  -->
<svg version="1.1" id="Слой_1" xmlns="http://www.w3.org/2000/svg" xmlns:xlink="http://www.w3.org/1999/xlink" x="0px" y="0px"
	 viewBox="0 0 164.5 148" style="enable-background:new 0 0 164.5 148;" width="20" height="20" xml:space="preserve">
<style type="text/css">
	.st0{fill:#00A000;}
</style>
<path class="st0" d="M43.7,132.6l102.1-131c1.3-1.7,5-1.1,8.2,1.3l6.9,5.4c3.2,2.5,4.6,5.9,3.8,7.5l-102.1,131
	c-1.8,1.9-5.5,1.3-8.7-1.2l-6.9-5.4C43.8,137.7,42.4,134.3,43.7,132.6z"/>
<path class="st0" d="M15.9,82.3L71,129.6c0.7,0.6-0.8,3.6-3.4,6.6l-5.7,6.6c-2.6,3-5.3,5-6.1,4.7L0.8,100.2c-0.7-1,0.9-3.9,3.5-7
	l5.7-6.6C12.5,83.6,15.2,81.7,15.9,82.3z"/>
</svg>
