<?xml version="1.0" encoding="utf-8"?>
<!-- Generator: Adobe Illustrator 21.0.2, SVG Export Plug-In . SVG Version: 6.00 Build 0)  -->
<svg version="1.1" id="Слой_1" xmlns="http://www.w3.org/2000/svg" xmlns:xlink="http://www.w3.org/1999/xlink" x="0px" y="0px"
	 viewBox="0 0 395 406" style="enable-background:new 0 0 395 406;" width="30" height="30" xml:space="preserve">
<style type="text/css">
	.st0{stroke:#000000;stroke-miterlimit:10;}
</style>
<path d="M44.6,153.4c-2.5,0-4.8,1.4-5.9,3.7C25.4,185.2,17,225.2,17,269.5c0,44.5,8.4,84.7,21.9,112.8c1.1,2.3,3.4,3.7,5.9,3.7h82.3
	c2.5,0,4.8-1.4,5.9-3.7C146.6,354.1,155,314,155,269.5c0-44.3-8.4-84.2-21.7-112.4c-1.1-2.3-3.4-3.7-5.9-3.7H44.6z"/>
<path d="M47.4,114.1c0,2-1.6,3.6-3.6,3.6v3.6l0,0c0,2,1.6,3.6,3.6,3.6h77c2,0,3.6-1.6,3.6-3.6l0,0v-3.6c-2,0-3.6-1.6-3.6-3.6H47.4z"
	/>
<path d="M47.4,130.2c0,2-1.6,3.6-3.6,3.6v3.6c0,1.2,0.1,2.4,0.2,3.5c0,0,0,0,0,0h83.8c0,0,0,0,0,0c0.1-1.2,0.2-2.3,0.2-3.5v-3.6
	c-2,0-3.6-1.6-3.6-3.6H47.4z"/>
<path d="M119.8,100c1.8,0,3.2-1.6,3.2-3.6V74.8C123,41.9,106.3,15,85.9,15h0c-20.4,0-37.1,26.9-37.1,59.8v21.6c0,2,1.4,3.6,3.2,3.6
	H119.8z"/>
<g>
	<path class="st0" d="M273.4,232.5c0-2.2-1.2-4.1-2.9-5c-21.4-11.2-51.5-17.9-84.9-17.4c-10.5,0.2-20.6,1.1-30.3,2.5
		c4.4,16.9,6.9,36.3,6.9,56.9c0,20.8-2.6,40.4-7,57.4c10.3,1.3,21.1,2,32.3,1.8c33.4-0.5,63.3-8.2,84.3-20c1.7-1,2.8-3,2.7-5.1
		L273.4,232.5z"/>
</g>
<path class="st0" d="M301.5,236.4c-1.5,0-2.7-1.3-2.8-3.1l-2.7,0h0c-1.5,0-2.7,1.4-2.6,3.1l1,66.3c0,1.7,1.2,3,2.7,3l0,0l2.7,0
	c0-1.7,1.2-3.1,2.7-3.1L301.5,236.4z"/>
<path class="st0" d="M289.4,236.6c-1.5,0-2.7-1.3-2.8-3.1l-2.7,0c-0.9,0-1.8,0.1-2.6,0.2c0,0,0,0,0,0l1.1,72.1c0,0,0,0,0,0
	c0.9,0.1,1.8,0.1,2.7,0.1l2.7,0c0-1.7,1.2-3.1,2.7-3.2L289.4,236.6z"/>
<path class="st0" d="M309.8,298.5c0,1.5,1.4,2.7,3,2.7l17.4-0.3c26.5-0.4,48-15.1,47.8-32.7v0c-0.3-17.6-22.2-31.6-48.8-31.2
	l-17.4,0.3c-1.6,0-2.9,1.3-2.9,2.8L309.8,298.5z"/>
</svg>
