<?xml version="1.0" encoding="utf-8"?>
<!-- Generator: Adobe Illustrator 21.0.2, SVG Export Plug-In . SVG Version: 6.00 Build 0)  -->
<svg version="1.1" id="Слой_1" xmlns="http://www.w3.org/2000/svg" xmlns:xlink="http://www.w3.org/1999/xlink" x="0px" y="0px"
	 viewBox="0 0 121 161" enable-background="new 0 0 121 161" xml:space="preserve">
<g>
	<path d="M61.5,74.5c-19.9,0-36-16.1-36-36s16.1-36,36-36s36,16.1,36,36S81.4,74.5,61.5,74.5z"/>
	<path d="M61.5,5C80,5,95,20,95,38.5S80,72,61.5,72S28,57,28,38.5S43,5,61.5,5 M61.5,0C40.2,0,23,17.2,23,38.5S40.2,77,61.5,77
		S100,59.8,100,38.5S82.8,0,61.5,0L61.5,0z"/>
</g>
<g>
	<path d="M31.3,158.5c-15.9,0-28.8-11-28.8-24.5V96.8c0-11,20.6-25.7,26.4-26.1c1.3,7.2,17.6,18.8,33.5,18.8c8.2,0,19.7-3,28.7-17.2
		c16.7,0.5,27.4,10,27.4,24.5V134c0,13.5-12.9,24.5-28.8,24.5H31.3z"/>
	<path d="M27.2,73.7c2.4,5.1,8.8,9.5,11,10.9c4.4,2.8,13.3,7.4,24.1,7.4C71,92,83,88.9,92.4,74.8c7.1,0.4,13,2.7,17.2,6.5
		c4.2,3.9,6.4,9.2,6.4,15.4V134c0,12.1-11.8,22-26.3,22H31.3C16.8,156,5,146.1,5,134V96.8c0-3.9,3.9-9.7,10.1-15.2
		C19.9,77.4,24.6,74.7,27.2,73.7 M29.1,68.2C21.9,68.2,0,84.2,0,96.8V134c0,14.9,14.1,27,31.3,27h58.5c17.2,0,31.3-12.2,31.3-27
		V96.8c0-14.9-10.9-27-31.3-27C82.1,82.6,72,87,62.4,87c-16,0-30.8-12.1-31.1-17C31.2,68.8,30.4,68.2,29.1,68.2L29.1,68.2z"/>
</g>
<polyline fill="#336699" stroke="#000000" stroke-width="3" stroke-miterlimit="10" points="53.5,87.5 53.5,120.7 61.5,131 
	70.5,120.7 70.5,88.5 "/>
<line fill="none" stroke="#000000" stroke-width="3" stroke-miterlimit="10" x1="53.5" y1="104.4" x2="70.5" y2="94.6"/>
<line fill="none" stroke="#000000" stroke-width="3" stroke-miterlimit="10" x1="53.5" y1="113.5" x2="70.5" y2="104.5"/>
<path fill="none" stroke="#000000" stroke-width="3" stroke-miterlimit="10" d="M51,86.5c7.7,3.3,15.3,3.3,23,0"/>
</svg>
