<?xml version="1.0" encoding="utf-8"?>
<!-- Generator: Adobe Illustrator 21.0.2, SVG Export Plug-In . SVG Version: 6.00 Build 0)  -->
<svg version="1.1" id="Слой_1" xmlns="http://www.w3.org/2000/svg" xmlns:xlink="http://www.w3.org/1999/xlink" x="0px" y="0px"
	 viewBox="0 0 197 184" style="enable-background:new 0 0 197 184;" width="30" height="30" xml:space="preserve">
<style type="text/css">
	.st0{stroke:#000000;stroke-width:0.6;stroke-miterlimit:10;}
	.st1{stroke:#000000;stroke-miterlimit:10;}
	.st2{fill:none;stroke:#000000;stroke-miterlimit:10;}
</style>
<rect x="25.5" y="1.1" transform="matrix(0.9659 0.2588 -0.2588 0.9659 25.1915 -5.0978)" class="st0" width="13" height="184"/>
<g>
	<g>
		<path d="M158.6,37.6c1.9,0,1.9-3,0-3C156.7,34.6,156.7,37.6,158.6,37.6L158.6,37.6z"/>
	</g>
</g>
<path class="st1" d="M150.6,114.6l12,3.2l-1.4,5.3C157.3,120.9,153.5,118.1,150.6,114.6z"/>
<path class="st1" d="M169.5,46.6l-3.3,12.3c3.8,1,7.8,2.2,11.7,3.3c0.5-2.1,1-4.2,1.5-6.3c0.1-0.3,0.1-0.6,0.1-0.8
	c-0.1-0.3-0.2-0.4-0.4-0.6C175.9,52.1,173.1,47.6,169.5,46.6z"/>
<path class="st1" d="M143.6,106.1c0.6,1,1.1,2.2,1.6,3.3c0.4,1,0.3,1,0.7,1.2c1.4,1.1,3,1.2,4.2,2.9c0.1,0.1,0.2,0.3,0.3,0.4
	l0.7,0.2l3.9-14.5c0.2-0.6,0.4-1.2,0.6-1.7l-12.4-3.3l-2.5,9.2c0.1,0.1,0.2,0.2,0.3,0.4C141.8,104.3,142.8,104.9,143.6,106.1z"/>
<path class="st1" d="M127.4,93.9c0.2-1,0.4-2,0.7-2.9l-13-3.5l-3.6,12.7c4.9-3.4,10.1-4.5,14.8-3.5c0.1,0,0.2,0,0.3,0.1
	C126.8,95.7,127.1,94.8,127.4,93.9z"/>
<path class="st1" d="M131.4,30l12.2,3.3c0.4-1.4,0.8-2.9,1.2-4.3c0.2-0.8,0.6-1.7,0.3-2.3c-0.3-0.6-2-0.5-2.6-0.5
	c-3.7-0.3-7.6,0.9-11.3,3.6"/>
<path class="st1" d="M129.9,30.6c-4.3,2.7-8.7,5-13.1,6.8c-0.9,0.4-2.5,0.5-3.4,1.3c-0.7,0.6-0.6,0.8-0.9,1.9
	c-0.4,1.5-0.8,3-1.2,4.4l13.6,3.6c0.7-2.4,1.3-4.9,2-7.3c0.9-3.4,1.6-7.3,2.9-10.5"/>
<path class="st1" d="M98.3,103.6c-0.9,0.2-1.9,0.3-2.8,0.4c-0.3,0.9-0.5,1.8-0.7,2.6c2-0.2,4.3-0.7,6.6-0.9c0.3-0.3,0.6-0.7,0.9-1
	C101.4,104.3,99.6,104.2,98.3,103.6z"/>
<path class="st1" d="M69.2,88.4L73,74.4l-13.6-3.6l-2.2,8.2C61.9,80.2,65.8,84.3,69.2,88.4z"/>
<line class="st2" x1="95.6" y1="103.2" x2="93.9" y2="109.5"/>
<path class="st1" d="M74.6,98.1c2.2,0.6,4.8,0.6,6.9,1.3c-0.5,1.8-0.9,3.5-1.4,5.3"/>
<path class="st1" d="M87.8,21.1l-4.3,16l13.9,3.7c0.4-1.4,0.8-2.9,1.2-4.3c0.7-3.2-0.1-3.2-1.6-4.9c-3.1-3.3-5.9-7-8.5-11.1"/>
<rect x="158.1" y="79.3" transform="matrix(0.9659 0.2588 -0.2588 0.9659 28.8351 -39.4753)" class="st1" width="12.4" height="21"/>
<rect x="130.4" y="72.2" transform="matrix(0.9659 0.2588 -0.2588 0.9659 25.9701 -32.8997)" class="st1" width="15" height="20"/>
<rect x="103.5" y="65.9" transform="matrix(0.9659 0.2588 -0.2588 0.9659 23.5221 -25.9665)" class="st1" width="13.7" height="21"/>
<rect x="75.3" y="57.3" transform="matrix(0.9659 0.2588 -0.2588 0.9659 20.3405 -18.9675)" class="st1" width="13.7" height="21"/>
<rect x="47.5" y="49.9" transform="matrix(0.9659 0.2588 -0.2588 0.9659 17.4981 -12.1053)" class="st1" width="14.4" height="21"/>
<rect x="174.7" y="64.2" transform="matrix(0.9659 0.2588 -0.2588 0.9659 25.253 -44.4706)" class="st1" width="13.7" height="19"/>
<rect x="165.4" y="102" transform="matrix(0.9659 0.2588 -0.2588 0.9659 34.4832 -40.8322)" class="st1" width="13.7" height="17"/>
<rect x="150.7" y="57.6" transform="matrix(0.9659 0.2588 -0.2588 0.9659 22.7046 -38.3183)" class="st1" width="12.4" height="19"/>
<rect x="122.2" y="50.1" transform="matrix(0.9659 0.2588 -0.2588 0.9659 19.8295 -31.3772)" class="st1" width="13.7" height="19"/>
<path class="st1" d="M74.5,15c3.1,0.8,6.1,1.6,9.2,2.5c-0.7-0.2-1.6-2.3-2.2-3c-0.9-1.1-1.9-2.1-2.9-3C76,9,75.7,10.5,74.5,15z"/>
<rect x="83.8" y="82.3" transform="matrix(0.9659 0.2588 -0.2588 0.9659 26.8429 -20.3402)" class="st1" width="13.7" height="19"/>
<rect x="94.4" y="42.8" transform="matrix(0.9659 0.2588 -0.2588 0.9659 16.9871 -24.515)" class="st1" width="14.4" height="19"/>
<rect x="67.2" y="35.4" transform="matrix(0.9659 0.2588 -0.2588 0.9659 14.1447 -17.6528)" class="st1" width="13.7" height="19"/>
<rect x="141" y="35.7" transform="matrix(0.9659 0.2588 -0.2588 0.9659 16.75 -36.9036)" class="st1" width="15" height="19"/>
<rect x="57.6" y="13.2" transform="matrix(0.9659 0.2588 -0.2588 0.9659 8.092 -16.0014)" class="st1" width="14.4" height="19"/>
<g>
	<g>
		<path d="M42.4,81.4c16.1-9.2,26.2,13,35.7,22c3.5,3.3,7.8,6.2,12.8,6.6c5.8,0.4,11-2.8,15.7-5.7c6.4-4,12.9-8.8,20.8-6.4
			c6.8,2.1,12,8.1,16.7,13.1c8.3,8.8,18.2,18.9,31.2,13.9c1.8-0.7,1-3.6-0.8-2.9c-16.3,6.2-26.5-13.1-37.1-21.7
			c-4.1-3.3-8.9-6-14.3-6.1c-6.2-0.1-11.6,3.4-16.7,6.6c-6.5,4.1-13.3,8.6-20.9,4.5c-6.4-3.5-10.8-10.1-15.2-15.6
			c-7.5-9.2-17.4-17.6-29.4-10.8C39.2,79.7,40.7,82.3,42.4,81.4L42.4,81.4z"/>
	</g>
</g>
<g>
	<g>
		<path d="M61.1,11.8c16.1-9.2,26.2,13,35.7,22c3.5,3.3,7.8,6.2,12.8,6.6c5.8,0.4,11-2.8,15.7-5.7c6.4-4,12.9-8.8,20.8-6.4
			c6.8,2.1,12,8.1,16.7,13.1C171,50.1,181,60.2,194,55.2c1.8-0.7,1-3.6-0.8-2.9c-16.3,6.2-26.5-13.1-37.1-21.7
			c-4.1-3.3-8.9-6-14.3-6.1c-6.2-0.1-11.6,3.4-16.7,6.6c-6.5,4.1-13.3,8.6-20.9,4.5C97.8,32.1,93.4,25.5,88.9,20
			C81.4,10.8,71.5,2.4,59.5,9.2C57.9,10.2,59.4,12.8,61.1,11.8L61.1,11.8z"/>
	</g>
</g>
<g>
	<g>
		<path d="M193.1,53.8c-6.1,22.9-12.3,45.8-18.4,68.8c-0.5,1.9,2.4,2.7,2.9,0.8c6.1-22.9,12.3-45.8,18.4-68.8
			C196.5,52.7,193.6,51.9,193.1,53.8L193.1,53.8z"/>
	</g>
</g>
<line class="st2" x1="55.9" y1="29.6" x2="190.4" y2="65.7"/>
<line class="st2" x1="93.9" y1="108.7" x2="112.6" y2="39.1"/>
<line class="st2" x1="50.7" y1="49" x2="185.3" y2="85"/>
<line class="st2" x1="101.8" y1="104.6" x2="74.6" y2="97.3"/>
<line class="st2" x1="84.5" y1="17.6" x2="61.1" y2="11.4"/>
<line class="st2" x1="149" y1="114.1" x2="176.5" y2="121.5"/>
</svg>
