<?xml version="1.0" encoding="utf-8"?>
<!-- Generator: Adobe Illustrator 21.0.2, SVG Export Plug-In . SVG Version: 6.00 Build 0)  -->
<svg version="1.1" id="Слой_1" xmlns="http://www.w3.org/2000/svg" xmlns:xlink="http://www.w3.org/1999/xlink" x="0px" y="0px"
	 viewBox="0 0 97 85" enable-background="new 0 0 97 85" width="30" height="30" xml:space="preserve">
<g>
	<rect x="2.5" y="60.5" width="14" height="24"/>
	<path d="M16,61v23H3V61H16 M17,60H2v25h15V60L17,60z"/>
</g>
<g>
	<rect x="27.5" y="40.5" width="15" height="44"/>
	<path d="M42,41v43H28V41H42 M43,40H27v45h16V40L43,40z"/>
</g>
<g>
	<rect x="53.5" y="20.5" width="15" height="64"/>
	<path d="M68,21v63H54V21H68 M69,20H53v65h16V20L69,20z"/>
</g>
<g>
	<rect x="79.5" y="0.5" width="15" height="84"/>
	<path d="M94,1v83H80V1H94 M95,0H79v85h16V0L95,0z"/>
</g>
</svg>
