<?xml version="1.0" encoding="utf-8"?>
<!-- Generator: Adobe Illustrator 21.0.2, SVG Export Plug-In . SVG Version: 6.00 Build 0)  -->
<svg version="1.1" id="Слой_1" xmlns="http://www.w3.org/2000/svg" xmlns:xlink="http://www.w3.org/1999/xlink" x="0px" y="0px"
	 viewBox="0 0 500 500" style="enable-background:new 0 0 500 500;" xml:space="preserve">
<style type="text/css">
	.st0{stroke:#000000;stroke-width:5;stroke-miterlimit:10;}
</style>
<rect x="238.5" y="307.5" class="st0" width="177.5" height="28"/>
<path class="st0" d="M399,297.5h-89.8c-9.4,0-17-7.6-17-17v0c0-9.3,7.6-17,17-17H399c9.3,0,17,7.6,17,17v0
	C416,289.9,408.4,297.5,399,297.5z"/>
<rect x="102.5" y="115.5" transform="matrix(0.9048 0.4259 -0.4259 0.9048 106.8245 -27.7647)" class="st0" width="26" height="219"/>
<path class="st0" d="M194.7,131.2l-43.4-20.4c-18.7-8.8-26.7-31.2-18-49.9l0,0c8.8-18.7,31.2-26.7,49.9-18l43.4,20.4
	c18.7,8.8,26.7,31.2,18,49.9l0,0C235.9,131.9,213.4,139.9,194.7,131.2z"/>
<rect x="251" y="82.7" transform="matrix(0.9048 0.4259 -0.4259 0.9048 77.2129 -100.8749)" class="st0" width="26.4" height="79"/>
<rect x="104" y="8.7" transform="matrix(0.9048 0.4259 -0.4259 0.9048 31.6986 -45.3154)" class="st0" width="26.4" height="79"/>
</svg>
