<?xml version="1.0" encoding="utf-8"?>
<!-- Generator: Adobe Illustrator 21.0.2, SVG Export Plug-In . SVG Version: 6.00 Build 0)  -->
<svg version="1.1" id="Слой_1" xmlns="http://www.w3.org/2000/svg" xmlns:xlink="http://www.w3.org/1999/xlink" x="0px" y="0px"
	 viewBox="0 0 345 338" style="enable-background:new 0 0 345 338;" width="30" height="30" xml:space="preserve">
<style type="text/css">
	.st0{stroke:#000000;stroke-width:5;stroke-miterlimit:10;}
</style>
<rect x="157.5" y="301.5" class="st0" width="177.5" height="28"/>
<path class="st0" d="M318,291.5h-89.8c-9.3,0-17-7.6-17-17v0c0-9.3,7.6-17,17-17H318c9.3,0,17,7.6,17,17v0
	C335,283.9,327.4,291.5,318,291.5z"/>
<rect x="67.5" y="116.5" transform="matrix(0.8516 0.5242 -0.5242 0.8516 130.4234 -8.6774)" class="st0" width="26" height="219"/>
<path class="st0" d="M164.8,135.6l-40.9-25.2c-17.6-10.8-23.1-34-12.3-51.6l0,0c10.8-17.6,34-23.1,51.6-12.3l40.9,25.2
	c17.6,10.8,23.1,34,12.3,51.6l0,0C205.5,140.9,182.3,146.4,164.8,135.6z"/>
<rect x="221.5" y="95" transform="matrix(0.8516 0.5242 -0.5242 0.8516 105.327 -103.1078)" class="st0" width="26.4" height="79"/>
<rect x="80.7" y="8" transform="matrix(0.8516 0.5242 -0.5242 0.8516 38.8518 -42.1905)" class="st0" width="26.4" height="79"/>
</svg>
