<?xml version="1.0" encoding="utf-8"?>
<!-- Generator: Adobe Illustrator 22.0.0, SVG Export Plug-In . SVG Version: 6.00 Build 0)  -->
<svg version="1.1" id="Слой_1" xmlns="http://www.w3.org/2000/svg" xmlns:xlink="http://www.w3.org/1999/xlink" x="0px" y="0px"
	 viewBox="0 0 323.8 325.1" style="enable-background:new 0 0 323.8 325.1;" width="30" height="30" xml:space="preserve">
<g>
	<path d="M21.6,323.4c-2.4,0-4.7-0.9-6.4-2.7l-9.5-9.7c-3.5-3.5-3.4-9.2,0.1-12.7l147.5-145.2c1.7-1.7,3.9-2.6,6.3-2.6
		c2.4,0,4.7,0.9,6.4,2.7l9.5,9.7c3.5,3.5,3.4,9.2-0.1,12.7L27.9,320.9C26.2,322.5,24,323.4,21.6,323.4z"/>
	<path d="M159.6,151.1L159.6,151.1c2.3,0,4.5,0.9,6.1,2.5l9.5,9.7c3.3,3.3,3.2,8.7-0.1,12L27.5,320.5c-1.6,1.6-3.7,2.4-6,2.4
		c-2.3,0-4.5-0.9-6.1-2.5L6,310.8c-3.3-3.3-3.2-8.7,0.1-12l147.5-145.2C155.2,152,157.3,151.1,159.6,151.1 M159.6,150.1
		c-2.4,0-4.8,0.9-6.7,2.7L5.4,298c-3.7,3.7-3.8,9.7-0.1,13.4l9.5,9.7c1.9,1.9,4.3,2.8,6.8,2.8c2.4,0,4.8-0.9,6.7-2.7L175.8,176
		c3.7-3.7,3.8-9.7,0.1-13.4l-9.5-9.7C164.5,151,162,150.1,159.6,150.1L159.6,150.1z"/>
</g>
<g>
	<path d="M237.2,36.3c3.8,0,7.6,0.4,11.3,1.2c14.5,3,27.1,11.5,35.2,23.9c8.2,12.4,11,27.3,8,41.8c-5.3,25.7-28.2,44.4-54.4,44.4
		c-3.8,0-7.6-0.4-11.3-1.2c-14.5-3-27.1-11.5-35.2-23.9c-8.2-12.4-11-27.3-8-41.8C188.1,54.9,211,36.3,237.2,36.3L237.2,36.3
		L237.2,36.3 M237.2,6.3c-39.8,0-75.4,27.9-83.8,68.3c-9.6,46.3,20.2,91.6,66.5,101.2c5.8,1.2,11.7,1.8,17.4,1.8
		c39.8,0,75.4-27.9,83.8-68.3c9.6-46.3-20.2-91.6-66.5-101.2C248.7,6.8,242.9,6.3,237.2,6.3L237.2,6.3z"/>
</g>
</svg>
