<?xml version="1.0" encoding="utf-8"?>
<!-- Generator: Adobe Illustrator 21.0.2, SVG Export Plug-In . SVG Version: 6.00 Build 0)  -->
<svg version="1.1" id="Слой_1" xmlns="http://www.w3.org/2000/svg" xmlns:xlink="http://www.w3.org/1999/xlink" x="0px" y="0px"
	 viewBox="0 0 254 243" style="enable-background:new 0 0 254 243;" width="32" height="32" xml:space="preserve">
<style type="text/css">
	.st0{fill:none;}
</style>
<g>
	<path d="M126,73c26.5,0,48,21.5,48,48s-21.5,48-48,48s-48-21.5-48-48c0-24.4,18.2-44.9,42.4-47.7C122.2,73.1,124.1,73,126,73
		 M126,48c-2.9,0-5.7,0.2-8.5,0.5C81.2,52.7,53,83.6,53,121c0,40.3,32.7,73,73,73s73-32.7,73-73S166.3,48,126,48L126,48z"/>
</g>
<g>
	<circle class="st0" cx="126" cy="121" r="60"/>
</g>
<g>
	<path d="M127,107c7.7,0,14,6.3,14,14s-6.3,14-14,14s-14-6.3-14-14S119.3,107,127,107 M127,97c-13.3,0-24,10.7-24,24s10.7,24,24,24
		s24-10.7,24-24S140.3,97,127,97L127,97z"/>
</g>
<g>
	<g>
		<path d="M141,120.5c-0.6,17.4-27,17.5-27,0S140.4,103.1,141,120.5c0.2,6.4,10.2,6.4,10,0c-0.5-12.8-10.4-23.5-23.5-23.5
			c-12.8,0-23.5,10.7-23.5,23.5c0,12.7,10.7,23.5,23.5,23.5c13.1,0,23-10.7,23.5-23.5C151.2,114.1,141.2,114.1,141,120.5z"/>
	</g>
</g>
<g>
	<circle cx="128" cy="121" r="9.5"/>
	<g>
		<path d="M132.5,121c-0.3,5.8-9,5.8-9,0C123.5,115.2,132.2,115.2,132.5,121c0.3,6.4,10.3,6.4,10,0c-0.4-7.9-6.3-14.5-14.5-14.5
			c-7.9,0-14.4,6.6-14.5,14.5c-0.1,7.7,6.4,14.2,14,14.5c8.4,0.3,14.6-6.4,15-14.5C142.8,114.6,132.8,114.6,132.5,121z"/>
	</g>
</g>
<g>
	<path d="M114.8,11.8l20.8-0.3l10.8,47.7l-0.1,0.2c-3-0.3-12.6-0.4-21.1-0.4c-14.5,0-19.4,0.2-21,0.6L114.8,11.8z"/>
	<path d="M135.3,12l10.6,46.9c-3.6-0.3-12.5-0.4-20.5-0.4c-5.6,0-10.9,0.1-14.7,0.2c-2.7,0.1-4.5,0.1-5.6,0.3l10.3-46.6L135.3,12
		 M136.1,11l-21.6,0.4l-10.7,48.6L104,61v-0.8c0-0.4,10.6-0.6,21.3-0.6c9.6,0,19.2,0.2,21.5,0.5l0.2-0.8L136.1,11L136.1,11z"/>
</g>
<g>
	<path d="M114.1,231.5l-9.8-48l0.1-0.2c4.7,0.6,25.4,1.2,36.5,1.2c3.8,0,5.6,0,6.5-0.2l-11.9,47.4L114.1,231.5z"/>
	<path d="M104.8,183.8c5.6,0.6,25.2,1.1,36,1.1c2.9,0,4.7,0,5.9-0.1L135,231.2l-20.5-0.2L104.8,183.8 M103.9,182.7l-0.2,0.8
		l9.9,48.5l22.1,0.2l12.1-48.3l-0.2-1.1l0,0.8c0,0.2-2.8,0.3-6.9,0.3C129.4,184,107.5,183.3,103.9,182.7L103.9,182.7z"/>
</g>
<g>
	<path d="M36.7,189l23.2-43.2l0.2-0.2c3.5,3.6,28.7,26.6,33.3,29.5l-40,28.3L36.7,189z"/>
	<path d="M60.2,146.4c2.8,2.8,10.5,9.9,17.1,15.7c9.6,8.5,13.5,11.8,15.3,13l-39.1,27.6l-16.1-13.9L60.2,146.4 M60.2,144.9l-0.7,0.5
		l-23.5,43.7L53.4,204l40.7-28.8l0.5-1l-0.6,0.6c0,0,0,0,0,0C92.9,174.9,63.5,148.8,60.2,144.9L60.2,144.9z"/>
</g>
<g>
	<path d="M14.3,125.2L14.1,105l47.8-10.4l0.3,0.1c-0.4,4.8-0.9,35.8,0,40.9L14.3,125.2z"/>
	<path d="M61.5,95.2c-0.3,3.7-0.4,13.2-0.5,21.3c0,11.6,0.2,16.4,0.4,18.5l-46.6-10.1l-0.3-19.4L61.5,95.2 M61.8,94.1l-48.3,10.5
		l0.3,21l48.5,10.6l1.1-0.2l-0.8,0c-0.8,0-0.7-37,0-41.7L61.8,94.1L61.8,94.1z"/>
</g>
<g>
	<path d="M39.5,47.9l13.1-16.3l43.6,22.2l0.2,0.2C93,57.5,72,82,69.3,86.5L39.5,47.9z"/>
	<path d="M52.7,32.2l42.9,21.9c-2.6,2.7-9.1,10.2-14.4,16.7C73.5,80,70.5,83.9,69.3,85.7L40.1,47.9L52.7,32.2 M52.5,31L38.8,47.9
		l30.4,39.4l1,0.5l-0.6-0.5C69,86.7,93.4,57.4,97,54.1l-0.5-0.6L52.5,31L52.5,31z"/>
</g>
<g>
	<path d="M157.2,180.9l-0.1-0.2c3.6-3.2,25.8-25.6,28.7-29.9l27.1,40.6l-14,15L157.2,180.9z"/>
	<path d="M185.8,151.7l26.5,39.7l-13.5,14.4l-41-25.1c2.8-2.5,9.6-9.4,15.3-15.3C181.3,157,184.5,153.4,185.8,151.7 M185,149.6
		l0.6,0.6c0.6,0.6-25.5,27.5-29.2,30.4l0.5,0.7l42.2,25.8l14.6-15.6L186,150.2L185,149.6L185,149.6z"/>
</g>
<g>
	<path d="M184.9,86.6c-2.8-3.8-21.8-26.4-25.7-29.7l42.6-23.7l12.9,14.5l-29.6,38.8L184.9,86.6z"/>
	<path d="M201.6,33.8L214,47.7l-29.1,38.1c-2.1-2.9-8-9.9-13.1-15.8c-7.1-8.3-10.3-11.7-11.8-13.1L201.6,33.8 M201.8,32.6
		l-43.3,24.1l-0.7,0.9l0.6-0.5c0,0,0,0,0,0c1,0,23.8,26.5,26.2,30.3l0.7-0.4l29.9-39.2L201.8,32.6L201.8,32.6z"/>
</g>
<g>
	<path d="M191.9,139c0.3-4.7,0.6-35.7-0.2-40.8l47.8,10l0.4,20.2L192.1,139L191.9,139z"/>
	<path d="M192.2,98.8l46.7,9.8l0.4,19.4l-46.9,10.5c0.3-3.7,0.4-13.2,0.3-21.2C192.7,105.6,192.5,100.9,192.2,98.8 M191.3,97.6
		l-1.1,0.2l0.8,0c0.8,0,0.9,36.9,0.3,41.6l0.8,0.2l48.2-10.8l-0.4-21L191.3,97.6L191.3,97.6z"/>
</g>
</svg>
