<?xml version="1.0" encoding="utf-8"?>
<!-- Generator: Adobe Illustrator 21.0.2, SVG Export Plug-In . SVG Version: 6.00 Build 0)  -->
<svg version="1.1" id="Слой_1" xmlns="http://www.w3.org/2000/svg" xmlns:xlink="http://www.w3.org/1999/xlink" x="0px" y="0px"
	 viewBox="0 0 254 252" style="enable-background:new 0 0 254 252;" width="30" height="30" xml:space="preserve">
<style type="text/css">
	.st0{fill:none;stroke:#000000;stroke-width:5;stroke-miterlimit:10;}
	.st1{stroke:#000000;stroke-width:5;stroke-miterlimit:10;}
</style>
<path class="st0" d="M82.1,152.6v59.1c0,12.4,10,22.4,22.4,22.4h113.3c12.4,0,22.4-10,22.4-22.4V36.4c0-12.4-10-22.4-22.4-22.4
	H104.5c-12.4,0-22.4,10-22.4,22.4v46.1"/>
<path class="st1" d="M131,58.5c-4.7,2.8-7.4,6.5-7.4,10.5v110.1c0,3.9,2.7,7.7,7.4,10.5l61.5,36.1c15.9,9.3,43.1,2.7,43.1-10.5V32.8
	c0-13.2-27.2-19.8-43.1-10.5l-63.9,37.4"/>
<rect x="44.5" y="116.5" transform="matrix(-1 -4.490642e-11 4.490642e-11 -1 145 249)" width="56" height="16"/>
<polygon points="7.9,124.1 51.5,98.1 51.5,150.1 "/>
</svg>
