<?xml version="1.0" encoding="utf-8"?>
<!-- Generator: Adobe Illustrator 22.0.0, SVG Export Plug-In . SVG Version: 6.00 Build 0)  -->
<svg version="1.1" id="Слой_1" xmlns="http://www.w3.org/2000/svg" xmlns:xlink="http://www.w3.org/1999/xlink" x="0px" y="0px"
	 viewBox="0 0 208.3 262.7" style="enable-background:new 0 0 208.3 262.7;" width="30" height="30" xml:space="preserve">
<style type="text/css">
	.st0{fill:none;}
	.st1{fill:#070606;stroke:#000000;stroke-width:4;stroke-miterlimit:10;}
</style>
<g>
	<path class="st0" d="M59.3,106.7h-27c-6.6,0-12,5.4-12,12v27c0,6.6,5.4,12,12,12h27c6.6,0,12-5.4,12-12v-27
		C71.3,112.1,65.9,106.7,59.3,106.7z"/>
	<path class="st0" d="M59.3,188.7h-27c-6.6,0-12,5.4-12,12v27c0,6.6,5.4,12,12,12h27c6.6,0,12-5.4,12-12v-27
		C71.3,194.1,65.9,188.7,59.3,188.7z"/>
	<path class="st0" d="M59.3,23.7h-27c-6.6,0-12,5.4-12,12v27c0,6.6,5.4,12,12,12h27c6.6,0,12-5.4,12-12v-27
		C71.3,29.1,65.9,23.7,59.3,23.7z"/>
	<path d="M195.8,2.2h-183c-6.6,0-12,5.4-12,12v236c0,6.6,5.4,12,12,12h183c6.6,0,12-5.4,12-12v-236C207.8,7.6,202.4,2.2,195.8,2.2z
		 M81.8,39.2c0-2.2,1.8-4,4-4h99c2.2,0,4,1.8,4,4v3c0,2.2-1.8,4-4,4h-99c-2.2,0-4-1.8-4-4V39.2z M81.8,59.2c0-2.2,1.8-4,4-4h91
		c2.2,0,4,1.8,4,4v3c0,2.2-1.8,4-4,4h-91c-2.2,0-4-1.8-4-4V59.2z M81.8,144.2c0-2.2,1.8-4,4-4h76c2.2,0,4,1.8,4,4v3c0,2.2-1.8,4-4,4
		h-76c-2.2,0-4-1.8-4-4V144.2z M71.3,227.7c0,6.6-5.4,12-12,12h-27c-6.6,0-12-5.4-12-12v-27c0-6.6,5.4-12,12-12h27
		c6.6,0,12,5.4,12,12V227.7z M71.3,145.7c0,6.6-5.4,12-12,12h-27c-6.6,0-12-5.4-12-12v-27c0-6.6,5.4-12,12-12h27c6.6,0,12,5.4,12,12
		V145.7z M71.3,62.7c0,6.6-5.4,12-12,12h-27c-6.6,0-12-5.4-12-12v-27c0-6.6,5.4-12,12-12h27c6.6,0,12,5.4,12,12V62.7z M144.8,229.2
		c0,2.2-1.8,4-4,4h-55c-2.2,0-4-1.8-4-4v-3c0-2.2,1.8-4,4-4h55c2.2,0,4,1.8,4,4V229.2z M180.8,209.2c0,2.2-1.8,4-4,4h-91
		c-2.2,0-4-1.8-4-4v-3c0-2.2,1.8-4,4-4h91c2.2,0,4,1.8,4,4V209.2z M194.8,127.2c0,2.2-1.8,4-4,4h-105c-2.2,0-4-1.8-4-4v-3
		c0-2.2,1.8-4,4-4h105c2.2,0,4,1.8,4,4V127.2z"/>
</g>
<g>
	<path class="st1" d="M42.1,69.8c0.6,0.1,1.3-0.2,1.6-1l0-0.1c0.2-0.4,0.3-0.9,0.3-1.4L43,69.1C42.7,69.5,42.4,69.7,42.1,69.8z"/>
	<path class="st1" d="M40.2,65.7l1.3-2L27.3,49.8c-0.8-0.7-1.8-0.5-2.3,0.6l0,0.1c-0.5,1.1-0.3,2.5,0.4,3.2l14.5,14.2
		C39.7,67.2,39.8,66.3,40.2,65.7z"/>
	<path class="st1" d="M65.8,29.6l-0.3-0.3c-0.7-0.9-1.7-0.8-2.4,0.2L41.5,63.6l1.9,1.8c0.4,0.4,0.7,1.1,0.7,1.8l21.8-34.5
		C66.5,31.9,66.5,30.4,65.8,29.6z"/>
	<path class="st1" d="M39.9,67.9c0.1,0.4,0.2,0.8,0.5,1.1l0.3,0.3c0.4,0.5,1,0.7,1.5,0.5c-0.2-0.1-0.5-0.2-0.7-0.4L39.9,67.9z"/>
	<path class="st1" d="M41.5,63.6l-1.3,2c-0.4,0.6-0.5,1.5-0.3,2.2l1.6,1.5c0.2,0.2,0.5,0.3,0.7,0.4c0.3-0.1,0.6-0.3,0.9-0.7l1.1-1.8
		c0-0.7-0.3-1.4-0.7-1.8L41.5,63.6z"/>
</g>
</svg>
