<?xml version="1.0" encoding="utf-8"?>
<svg version="1.1" id="Слой_1" xmlns="http://www.w3.org/2000/svg" xmlns:xlink="http://www.w3.org/1999/xlink" x="0px" y="0px"
	 viewBox="0 0 300 500" enable-background="new 0 0 120.6 180.3" width="200" height="300" xml:space="preserve">
<path fill="none" stroke="#000000" stroke-width="9" stroke-miterlimit="3" d="M14.4,6.7l29.1-2.1c1.3-0.1,2.6,0,3.9,0.4l4.8,1.4
	c2.1,0.6,4,1.9,5.4,3.7L116,85.7c0.3,0.4,0.7,0.8,1.1,1.2l75.2,71.3c0.8,0.7,1.6,1.3,2.6,1.8l6.9,3.4c2.4,1.2,5.1,1.4,7.7,0.7
	l7.7-2.1c3.9-1.1,8,0.1,10.8,3.1l3.4,3.7c2,2.2,4.9,3.5,7.9,3.5h11.3h176c2,0,3.9,0.5,5.6,1.6l6.6,4.1c2.4,1.5,4.2,3.9,4.8,6.7v0
	c1.3,5.6,0.4,11.4-2.4,16.3l-1.9,3.3c-1.1,2-2.9,3.5-4.9,4.5c0,0-26.7,18-43,17.5c-16.3-0.5-221.2-3.9-221.2-3.9
	c-2.3,0-4.6-0.8-6.4-2.3l0,0c-3.7-2.9-8.8-3-12.6-0.4l-8.9,6.1c-0.4,0.3-0.8,0.5-1.3,0.8l-6.7,3.4c-1.7,0.9-3.6,1.2-5.6,1.1
	L79,227.6c-1.7-0.1-3.3-0.6-4.7-1.5l-15.6-9.4c-1.5-0.9-8.3-7.9-9.2-9.3l-6.9-14.2c-0.7-1.2-1.2-2.5-1.5-3.8l-7.6-43.6
	c0-0.2-0.1-0.5-0.1-0.7l-5.3-49.3c-0.4-3.9-2.9-7.2-6.5-8.7l-0.8-0.3c-3.4-1.4-5.8-4.4-6.4-8L4.7,24.3c-0.1-0.6-0.2-1.3-0.2-1.9
	v-5.1C4.5,11.7,8.8,7.1,14.4,6.7z"/>
<rect x="250.5" y="204.4" fill="#FFFFFF" stroke="#000000" stroke-width="0.75" stroke-miterlimit="10" width="18.5" height="36.5"/>
<rect x="251" y="228.9" fill="#0A0909" stroke="#000000" stroke-width="0.75" stroke-miterlimit="10" width="6" height="6"/>
<rect x="263" y="228.9" fill="#0A0909" stroke="#000000" stroke-width="0.75" stroke-miterlimit="10" width="6" height="6"/>
<rect x="257" y="234.9" fill="#0A0909" stroke="#000000" stroke-width="0.75" stroke-miterlimit="10" width="6" height="6"/>
<rect x="251" y="216.9" fill="#0A0909" stroke="#000000" stroke-width="0.75" stroke-miterlimit="10" width="6" height="6"/>
<rect x="263" y="216.9" fill="#0A0909" stroke="#000000" stroke-width="0.75" stroke-miterlimit="10" width="6" height="6"/>
<rect x="257" y="222.9" fill="#0A0909" stroke="#000000" stroke-width="0.75" stroke-miterlimit="10" width="6" height="6"/>
<rect x="251" y="204.9" fill="#0A0909" stroke="#000000" stroke-width="0.75" stroke-miterlimit="10" width="6" height="6"/>
<rect x="263" y="204.9" fill="#0A0909" stroke="#000000" stroke-width="0.75" stroke-miterlimit="10" width="6" height="6"/>
<rect x="257" y="210.9" fill="#0A0909" stroke="#000000" stroke-width="0.75" stroke-miterlimit="10" width="6" height="6"/>
</svg>
