<svg xmlns="http://www.w3.org/2000/svg" xmlns:xlink="http://www.w3.org/1999/xlink" width="117" height="51" viewBox="0 0 117 51">
    <defs>
        <path id="a" d="M.478.277h56.13v30.325H.478z"/>
    </defs>
    <g fill="none" fill-rule="evenodd">
        <g transform="translate(60 5)">
            <mask id="b" fill="#fff">
                <use xlink:href="#a"/>
            </mask>
            <path fill="#83AF40" d="M33.604.277c-.937 0-1.86.039-2.767.11 3.815.006 19.882 3.544 19.882 13.269 0 6.146-5.19 9.361-14.516 9.361H15.738c-4.203-.027-7.603-3.409-7.603-7.577 0-4.187 3.428-7.582 7.656-7.582a7.67 7.67 0 0 1 5.414 2.221l5.414-5.36A15.34 15.34 0 0 0 15.791.277C7.335.277.478 7.066.478 15.44c0 8.355 6.828 15.132 15.26 15.16v.002h21.095c12.706 0 19.775-6.788 19.775-15.163C56.608 7.065 46.31.277 33.604.277" mask="url(#b)"/>
        </g>
        <path fill="#83AF40" d="M0 20c0 8.285 10.29 15 22.984 15 .936 0 1.857-.038 2.764-.109-3.812-.006-19.863-3.506-19.863-13.127 0-6.08 5.184-9.261 14.501-9.261h12.87V35h7.577V5H19.757C7.064 5 0 11.715 0 20M39.237 0H34.93c-.881 0-1.596.746-1.596 1.667 0 .92.715 1.666 1.596 1.666h4.308c.882 0 1.596-.745 1.596-1.666C40.833.746 40.12 0 39.237 0M59.88 12.5A17.595 17.595 0 0 1 66.667 5H43.333v30h7.479V24.5h7.969a17.533 17.533 0 0 1-.588-4.5c0-1.023.093-2.025.262-3h-7.643v-4.5h9.068z"/>
        <path fill="#666" d="M58.333 40l-1.931 10h-1.698l1.256-6.557-4.126 5.416h-.8l-2.207-5.545L47.544 50h-1.71l1.93-10h1.463l2.553 6.657L56.788 40zM65.618 46.229l-1.015-4.4-2.759 4.4h3.774zm.342 1.458h-5.03L59.487 50H57.5l6.503-10h1.843l2.487 10H66.49l-.529-2.313zM75.86 44.936c.468-.405.702-.988.702-1.75 0-.534-.173-.936-.52-1.208-.347-.271-.846-.407-1.494-.407h-2.014l-.757 3.971h2.095c.856 0 1.519-.202 1.987-.606m1.744.514c-.486.663-1.167 1.122-2.041 1.378L77.252 50h-1.866l-1.555-2.93H71.48L70.94 50h-1.772l1.893-10h3.677c1.145 0 2.03.264 2.657.792.626.53.94 1.27.94 2.222 0 .962-.244 1.774-.73 2.436M84.703 44.658L88.211 50h-2.043l-2.803-4.214-1.874 1.657L80.984 50h-1.817l1.972-10h1.818l-1 5.057L87.69 40H90l-5.269 4.644zM92.645 41.557l-.507 2.6h4.773l-.295 1.529h-4.788l-.535 2.757h5.576L96.56 50h-7.392l1.972-10h7.194l-.309 1.557zM102.305 41.572h-3.138L99.464 40h8.036l-.311 1.572h-3.14L102.468 50h-1.758zM108.502 49.847c-.71-.213-1.266-.486-1.669-.82l.792-1.416c.422.324.923.582 1.504.77.58.19 1.172.286 1.777.286.738 0 1.326-.124 1.763-.368.436-.246.654-.581.654-1.006a.786.786 0 0 0-.266-.605 2.081 2.081 0 0 0-.662-.396c-.264-.102-.63-.218-1.1-.348a13.56 13.56 0 0 1-1.584-.534 2.734 2.734 0 0 1-1.036-.771c-.288-.343-.432-.788-.432-1.334 0-.63.185-1.18.554-1.652.37-.472.886-.838 1.548-1.097.661-.259 1.425-.39 2.288-.39.651 0 1.27.073 1.856.216a5.288 5.288 0 0 1 1.511.604l-.734 1.43a4.613 4.613 0 0 0-1.266-.555c-.47-.13-.96-.195-1.468-.195-.748 0-1.341.132-1.777.397-.437.263-.655.613-.655 1.048 0 .25.091.46.273.625.182.166.403.299.662.396.26.098.638.22 1.137.368.633.176 1.151.347 1.554.514.404.167.746.412 1.03.736.282.324.424.746.424 1.264 0 .64-.185 1.194-.555 1.666-.369.473-.892.839-1.568 1.098-.676.259-1.451.389-2.324.389-.777 0-1.52-.106-2.23-.32"/>
    </g>
</svg>
